<svg width="176" height="36" fill="none" xmlns="http://www.w3.org/2000/svg"><g clip-path="url(#clip0_89_5001)"><path d="M10.877 34.181c.86-.37 1.902-.82 3.034-1.413a2.25 2.25 0 01-.182-1.687c-2.405-2.332-4.795-5.328-6.173-8.896-1.053-2.724-1.487-5.63-1.58-8.372a2.415 2.415 0 01-.517-.205A45.594 45.594 0 000 17.924v.01c0 7.23 4.409 13.46 10.76 16.299l.116-.052h.001zm2.037.859c2.207.675 4.52.943 6.824.789a40.356 40.356 0 01-2.808-1.983 2.444 2.444 0 01-1.703.035c-.828.46-1.61.84-2.313 1.159zm9.367.45a18.544 18.544 0 0011.15-6.998 26.327 26.327 0 00-2.593-3.367 31.827 31.827 0 00-3.719-3.505 2.43 2.43 0 01-1.267.352h-.031c-1.922 4.65-4.693 7.727-7.405 9.82a2.246 2.246 0 01-.263.968c.865.659 1.758 1.28 2.675 1.863.476.303.96.592 1.453.867zm12.134-8.45a17.449 17.449 0 002.557-9.105c0-3.764-1.195-7.256-3.236-10.142a38.441 38.441 0 00-4.904-.472c-.158.53-.502.987-.967 1.287.122 2.821-.02 5.97-.715 9.103a2.298 2.298 0 011.09 1.944c0 .249-.04.487-.114.711a33.468 33.468 0 013.946 3.714 28.757 28.757 0 012.343 2.96zM32.27 5.985a18.491 18.491 0 00-5.162-3.919c.14.753.28 1.593.4 2.502a2.36 2.36 0 011.202 1.16c1.19.036 2.378.122 3.56.258v-.001zm-6.992-4.736c.192.901.393 1.991.565 3.218a2.373 2.373 0 00-1.511 1.324 48.08 48.08 0 00-8.085 1.18c-2.86.67-5.523 1.774-7.888 3.027a2.39 2.39 0 00-.63-.467c.17-1.954.47-3.894.904-5.808.103-.455.198-.835.275-1.131A18.826 18.826 0 0118.485 0c2.399 0 4.69.443 6.793 1.25zM6.908 3.952A18.14 18.14 0 002.087 9.65c.87.162 1.738.344 2.6.547l.014.003a2.396 2.396 0 011.405-.881c.159-1.804.427-3.596.803-5.367zm-5.535 7.186a17.393 17.393 0 00-1.222 4.495 48.004 48.004 0 014.23-3.234 2.248 2.248 0 01-.147-.674 51.383 51.383 0 00-2.861-.587z" fill="#F7FBFF"/><path d="M16.03 29.384c.728 0 1.38.316 1.818.813 2.383-1.933 4.746-4.697 6.442-8.79a2.286 2.286 0 01-.754-2.31 38.03 38.03 0 00-5.105-2.618c-3.8-1.607-7.104-2.76-9.846-3.586-.244.343-.58.62-.974.795.082 2.629.492 5.385 1.478 7.938 1.24 3.207 3.384 5.956 5.61 8.15a2.442 2.442 0 011.331-.392zm9.525-12.028c.628-2.847.782-5.735.688-8.372a2.377 2.377 0 01-1.983-1.597 46.21 46.21 0 00-7.628 1.128c-2.702.633-5.233 1.682-7.495 2.882 2.785.84 6.122 2.008 9.949 3.626a39.652 39.652 0 015.366 2.757 2.411 2.411 0 011.103-.423zm142.368 4.042s-.022-1.81-.417-2.653c-.361-.767-1.185-1.319-2.037-1.434-1.12-.153-2.033.17-3.089.54a2.478 2.478 0 01-.614.15.974.974 0 01-1.027-.73c-.116-.419.094-.924.506-1.093 1.852-.76 3.397-1.108 5.384-.64 1.636.385 2.958 1.802 3.343 3.331.173.688.23 1.715.232 2.417.005 2.29.002 3.92.001 6.21 0 .505-.249.869-.696 1.026-.476.168-.857.043-1.168-.302a.973.973 0 01-.248-.684v-.86l-.07-.044c-.034.053-.062.11-.105.156-.919.998-2.297 1.779-3.675 1.89-.794.066-1.545.026-2.3-.247-1.11-.399-2.044-1.405-2.13-3.305-.04-.908.395-1.88 1.193-2.564.876-.747 2.169-1.164 3.323-1.164h3.594zm0 2.727l.003-1.314s-2.628-.036-3.135-.013c-.584.025-1.144.155-1.643.455-.714.428-1.011 1.058-.939 1.84.071.781.587 1.933 2.119 1.933.793 0 1.79-.33 2.301-.827.511-.495 1.278-1.156 1.294-2.073z" fill="#F7FBFF"/><path d="M75.24 21.444s-.021-1.81-.417-2.653c-.36-.766-1.185-1.318-2.037-1.435-1.12-.151-2.033.173-3.089.54a2.488 2.488 0 01-.613.152c-.489.038-.897-.266-1.028-.732-.116-.417.094-.923.506-1.09 1.852-.761 3.398-1.11 5.384-.641 1.636.385 2.96 1.802 3.343 3.331.173.688.23 1.715.232 2.417.005 2.29.002 3.92 0 6.21 0 .505-.248.869-.695 1.026-.476.167-.856.043-1.168-.302a.979.979 0 01-.248-.684v-.861l-.07-.044c-.035.053-.062.111-.104.157-.92.998-2.297 1.778-3.675 1.89-.794.065-1.545.025-2.3-.248-1.11-.4-2.044-1.404-2.13-3.305-.04-.907.394-1.88 1.192-2.563.876-.748 2.17-1.165 3.323-1.165h3.594zm0 2.728l.003-1.314s-2.628-.036-3.137-.014c-.582.026-1.14.156-1.642.456-.715.427-1.01 1.057-.939 1.839.072.781.587 1.934 2.121 1.934.792 0 1.789-.332 2.3-.827.512-.496 1.278-1.156 1.293-2.072l.001-.002z" fill="#fff"/><path d="M139.703 15.473c1.081 0 2.163-.002 3.244 0 .554.003 1.022.23 1.022.892 0 .66-.24.92-1.022.941-1.077.03-3.229.005-3.229.005s.006 6.988 0 7.483c-.017 1.037.836 1.736 1.866 1.736h1.193c.511 0 1.192.083 1.192 1.074 0 .993-1.192.91-1.192.91s-.809.009-1.705 0c-2.289-.024-3.746-1.64-3.746-3.967-.002-3.485-.002-10.484 0-13.969 0-.573.266-.96.762-1.123.51-.168 1.06-.024 1.37.36.175.218.246.469.245.742-.006 1.64 0 3.278 0 4.916zm-15.455 6.687v5.375c0 .486-.22.847-.68 1.037-.47.196-.922.14-1.32-.185-.279-.232-.379-.54-.379-.887V16.702c0-.611.31-1.018.876-1.163.78-.202 1.498.32 1.501 1.1.007 1.84.002 3.68.002 5.52zm-13.067-1.262c-.661-2.134-1.324-4.267-1.99-6.4-.553-1.76-1.103-3.521-1.662-5.28-.238-.746-1.082-1.04-1.766-.627-.497.299-.672.777-.489 1.36l1.793 5.708.584 1.853c.161.512.959 3.09 1.725 5.566.693 2.24 1.531 4.396 1.677 4.861.104.332.294.6.629.74a1.94 1.94 0 001.451 0c.337-.14.526-.408.631-.74.145-.463.983-2.62 1.677-4.86a2821.57 2821.57 0 011.725-5.567l.582-1.853c.598-1.903 1.197-3.804 1.794-5.708.184-.583.009-1.061-.488-1.36-.686-.414-1.53-.119-1.767.627-.404 1.272-.803 2.546-1.203 3.818l-.459 1.462c-.278.884-1.133 3.642-1.989 6.4-.435 1.401-1.101 4.123-1.228 4.123s-.793-2.722-1.227-4.123zm64.818-8.015v14.721c0 .385-.206.671-.632.822-.437.155-.858.111-1.228-.147a.806.806 0 01-.354-.703V8.558c0-.482.29-.805.816-.92.725-.16 1.394.253 1.396.872.006 1.457.002 2.914.002 4.373zm-51.624-2.244c-.009.747-.543 1.274-1.281 1.262-.76-.011-1.283-.551-1.274-1.312.008-.67.58-1.174 1.324-1.167.704.007 1.24.537 1.231 1.216z" fill="#F7FBFF"/><path d="M49.941 10.593h-.269l-4.015-.001a1.174 1.174 0 01-1.126-.792c-.164-.488 0-1 .423-1.304.236-.17.503-.231.795-.231 3.61.003 5.346.002 8.956.002-.735 0 .573-.002 1.883 0 .626.001 1.138.436 1.21 1.022.072.582-.306 1.122-.9 1.271-.123.032-.259.032-.388.033h-3.743c-.269 0-.27 0-.27.26 0 5.542 0 10.921.002 16.465 0 .516-.179.933-.649 1.194-.828.458-1.852-.092-1.905-1.017-.007-.1-.004-.2-.004-.3V10.592zM83.13 17.2c.71-.709 1.505-1.32 2.4-1.58 1.463-.426 3.054-.15 3.938.413 1.774 1.13 2.357 2.823 2.361 4.826.007 2.255.006 4.51.005 6.764-.001.657-.498 1.131-1.178 1.137-.677.006-1.184-.463-1.186-1.123-.005-2.003 0-4.064-.002-6.068 0-2.312-1.126-3.966-3-4.049-1.874-.082-3.34 1.322-3.34 3.305 0 1.985-.01 4.052.01 6.764.007.938-.99 1.442-1.791 1.021a1.044 1.044 0 01-.57-.82 1.607 1.607 0 01-.012-.218c0-3.635.006-7.271-.005-10.91-.004-.994 1.026-1.44 1.78-1.041.374.196.579.51.59.93.004.197 0 .392 0 .65zm15.85 11.726a6.644 6.644 0 01-4.137-1.335c-.492-.362-.788-.959-.462-1.434.339-.495.973-.465 1.513-.164.388.215.766.453 1.174.627.996.428 2.202.437 3.268.1.683-.214 1.178-.63 1.301-1.363.092-.537-.065-1.003-.527-1.305a6.634 6.634 0 00-1.279-.637c-.77-.287-1.563-.516-2.343-.782a6.239 6.239 0 01-1.733-.88c-1.135-.844-1.348-1.987-1.173-3.32.182-1.396 1.04-2.29 2.353-2.804.943-.368 1.758-.42 2.757-.348a7.34 7.34 0 012.978.885c.565.308.765.653.503 1.161-.272.524-.899.723-1.468.485-.473-.196-.945-.41-1.438-.545-.669-.181-1.358-.218-2.042-.025a1.767 1.767 0 00-1.286 1.845c.042.48.334.807.724 1.065.55.364 1.179.543 1.794.758.893.313 1.454.607 2.326.97.69.29 1.268.755 1.653 1.405.94 1.582.354 3.79-1.245 4.756-1.09.659-1.952.87-3.21.883v.002zM60.519 17.224l.154-.185c1.068-1.28 2.368-1.749 3.05-1.749H65c.426 0 .937.495.937 1.075 0 .578-.427 1.074-.937 1.074h-1.364c-.34 0-1.119.33-1.874 1.075-.744.732-1.123 1.876-1.123 2.214-.002 2.65-.004 3.99 0 6.638 0 .49-.208.862-.682 1.095-.808.396-1.804-.12-1.855-.955-.002-.047-.002-.093-.002-.14V16.682c0-.594.352-1.032.95-1.187.74-.193 1.365.314 1.41 1.011.012.343 0 .52 0 .699l.057.02z" fill="#fff"/><path d="M130.031 17.306l.154-.185c1.069-1.279 2.369-1.748 3.05-1.748h1.278c.427 0 .937.495.937 1.074 0 .578-.426 1.074-.937 1.074h-1.363c-.341 0-1.119.33-1.874 1.075-.744.733-1.123 1.876-1.123 2.215-.003 2.649-.005 3.989 0 6.638.001.488-.207.862-.681 1.095-.808.395-1.804-.122-1.857-.955-.002-.047-.002-.094-.002-.14V16.765c0-.596.353-1.032.951-1.187.741-.193 1.364.313 1.409 1.011.012.343.002.52.002.699l.056.018zm16.154-.77c0-.61.31-1.017.877-1.163.779-.2 1.498.32 1.5 1.1.008 2.553.007 5.76.007 7.33 0 1.57 1.589 2.81 3.237 2.81 1.649 0 3.238-1.157 3.238-2.81v-7.266c0-.61.312-1.019.878-1.164.778-.2 1.496.32 1.5 1.1.008 2.553.007 3.695.007 6.999 0 3.305-2.749 5.29-5.623 5.29s-5.622-2.315-5.622-5.29l.001-6.936z" fill="#F7FBFF"/></g><defs><clipPath id="clip0_89_5001"><path fill="#fff" d="M0 0h176v36H0z"/></clipPath></defs></svg>