<svg width="176" height="36" viewBox="0 0 176 36" fill="none" xmlns="http://www.w3.org/2000/svg">
<g clip-path="url(#clip0_89_5001)">
<path d="M10.877 34.1814C11.7373 33.8105 12.7791 33.3611 13.9106 32.7676C13.6324 32.2504 13.5673 31.6454 13.7291 31.0811C11.3241 28.7487 8.93446 25.7531 7.55597 22.1847C6.50325 19.4607 6.06927 16.5556 5.97635 13.8131C5.79664 13.7649 5.62312 13.696 5.45928 13.608C3.53195 14.9056 1.70687 16.3483 0 17.9236L0 17.9345C0 25.164 4.40875 31.3931 10.76 34.2327L10.8759 34.1814H10.877ZM12.9136 35.04C15.1214 35.7154 17.4342 35.9827 19.7382 35.8287C18.7744 35.208 17.8374 34.5467 16.9299 33.8465C16.3848 34.062 15.7802 34.0744 15.2267 33.8814C14.3992 34.3418 13.6176 34.7214 12.9136 35.04ZM22.2809 35.4905C26.7308 34.5985 30.6982 32.1085 33.4313 28.4923C32.6593 27.3019 31.7921 26.1757 30.8383 25.1247C29.6948 23.8587 28.4511 22.6866 27.1193 21.6196C26.7375 21.8512 26.2991 21.9732 25.8523 21.972H25.8206C23.8988 26.6225 21.1277 29.6989 18.4155 31.7923C18.4013 32.1404 18.3084 32.4687 18.1531 32.76C19.018 33.4185 19.9105 34.0402 20.8281 34.6233C21.3043 34.9256 21.7888 35.2148 22.2809 35.4905ZM34.4151 27.0404C36.0898 24.2972 36.9745 21.1466 36.972 17.9345C36.972 14.1709 35.7772 10.6789 33.7362 7.79344C32.1134 7.5313 30.4754 7.37352 28.8323 7.32108C28.6736 7.85137 28.3305 8.3078 27.8648 8.60835C27.9873 11.4294 27.8452 14.5778 27.1499 17.7109C27.8058 18.1233 28.2409 18.84 28.2409 19.6549C28.2409 19.9036 28.2004 20.1425 28.1261 20.3662C29.54 21.4955 30.8597 22.7374 32.0724 24.0796C32.9174 25.0143 33.7 26.0033 34.4151 27.0404ZM32.2703 5.98472C30.7944 4.38533 29.0469 3.05876 27.1084 2.06617C27.2483 2.8189 27.3871 3.6589 27.5074 4.56762C28.0398 4.7989 28.4694 5.21235 28.7099 5.72835C29.8998 5.76429 31.0876 5.85018 32.2703 5.98581V5.98472ZM25.2784 1.24908C25.4697 2.15017 25.6709 3.23999 25.8425 4.46726C25.5089 4.56393 25.2007 4.73256 24.9396 4.96123C24.6786 5.18989 24.471 5.473 24.3317 5.79053C21.608 5.95388 18.9032 6.34876 16.2467 6.9709C13.3869 7.64181 10.724 8.74472 8.35945 9.99817C8.17676 9.809 7.96401 9.65124 7.72979 9.53126C7.89808 7.57702 8.19977 5.63652 8.63274 3.72326C8.7355 3.26835 8.83061 2.88762 8.90822 2.59199C11.8103 0.887438 15.118 -0.00776145 18.4855 -1.11352e-05C20.8839 -1.11352e-05 23.1752 0.442898 25.2784 1.24908ZM6.90882 3.95235C4.92281 5.49754 3.28038 7.43786 2.08576 9.65017C2.95686 9.81177 3.82399 9.994 4.68641 10.1967L4.69953 10.2C5.04783 9.7483 5.54641 9.43569 6.10534 9.31853C6.264 7.51528 6.53195 5.72327 6.90773 3.95235H6.90882ZM1.37302 11.1382C0.765906 12.575 0.354848 14.0867 0.150857 15.6327C1.49998 14.4776 2.91234 13.3981 4.38142 12.3993C4.29779 12.1834 4.24801 11.956 4.23384 11.7251C3.28601 11.5024 2.33202 11.3067 1.37302 11.1382Z" fill="#F7FBFF"/>
<path d="M16.0302 29.3836C16.7582 29.3836 17.4097 29.7 17.8481 30.1974C20.2312 28.2644 22.5936 25.5 24.2901 21.4069C23.9596 21.1316 23.7135 20.7689 23.5801 20.3605C23.4467 19.952 23.4314 19.5142 23.5359 19.0974C21.9028 18.0974 20.1962 17.2222 18.4308 16.4793C14.6309 14.8724 11.3274 13.7193 8.58461 12.8934C8.34083 13.236 8.00523 13.5131 7.6106 13.6876C7.69258 16.3167 8.10252 19.0734 9.08856 21.6262C10.3282 24.8334 12.473 27.5825 14.6998 29.7753C15.0959 29.5189 15.5581 29.3829 16.0302 29.3836ZM25.5549 17.3564C26.1835 14.5091 26.3366 11.6214 26.2425 8.98363C25.7941 8.93302 25.3694 8.75591 25.0182 8.47305C24.6669 8.19019 24.4038 7.8133 24.2595 7.38654C21.6902 7.55023 19.139 7.92754 16.6325 8.51454C13.9302 9.14835 11.3995 10.1967 9.13666 11.3967C11.922 12.2367 15.2595 13.4051 19.0856 15.0229C20.942 15.8043 22.736 16.7259 24.4519 17.7796C24.769 17.556 25.1461 17.4065 25.5549 17.3574V17.3564ZM167.923 21.3982C167.923 21.3982 167.901 19.5873 167.506 18.7451C167.145 17.9782 166.321 17.4262 165.469 17.3105C164.349 17.1578 163.436 17.4818 162.38 17.8505C162.183 17.9267 161.976 17.9773 161.766 18.0011C161.536 18.0207 161.306 17.958 161.118 17.824C160.93 17.6901 160.796 17.4938 160.739 17.2702C160.623 16.8524 160.833 16.3473 161.245 16.1782C163.097 15.4189 164.642 15.0698 166.629 15.5378C168.265 15.9229 169.587 17.34 169.972 18.8694C170.145 19.5567 170.202 20.5844 170.204 21.2858C170.209 23.5767 170.206 25.2054 170.205 27.4964C170.205 28.0014 169.956 28.3647 169.509 28.5218C169.033 28.6898 168.652 28.5654 168.341 28.2196C168.173 28.0321 168.084 27.787 168.093 27.5356V26.676L168.023 26.6324C167.989 26.6847 167.961 26.7425 167.918 26.7884C166.999 27.7865 165.621 28.5665 164.243 28.6789C163.449 28.7444 162.698 28.704 161.943 28.4313C160.833 28.032 159.899 27.0262 159.813 25.1258C159.773 24.2182 160.208 23.2451 161.006 22.5622C161.882 21.8149 163.175 21.3982 164.329 21.3982H167.923ZM167.923 24.1254L167.926 22.8109C167.926 22.8109 165.298 22.7749 164.791 22.7978C164.207 22.8229 163.647 22.9527 163.148 23.2527C162.434 23.6814 162.137 24.3109 162.209 25.0931C162.28 25.8742 162.796 27.0262 164.328 27.0262C165.121 27.0262 166.118 26.6956 166.629 26.1993C167.14 25.704 167.907 25.0429 167.923 24.1265V24.1254Z" fill="#F7FBFF"/>
<path d="M75.2405 21.444C75.2405 21.444 75.2186 19.6331 74.8229 18.7909C74.4633 18.0251 73.6379 17.4731 72.7863 17.3564C71.6658 17.2048 70.753 17.5288 69.697 17.8964C69.4999 17.9728 69.2938 18.0237 69.0838 18.048C68.5951 18.0862 68.1874 17.7818 68.0562 17.316C67.9403 16.8993 68.1502 16.3931 68.5623 16.2251C70.4142 15.4648 71.9599 15.1168 73.9462 15.5848C75.5816 15.9698 76.9054 17.3869 77.2891 18.9164C77.4618 19.6037 77.5187 20.6313 77.5208 21.3328C77.5263 23.6237 77.523 25.2524 77.5219 27.5433C77.5219 28.0484 77.2727 28.4117 76.8256 28.5688C76.3501 28.7357 75.9696 28.6124 75.6581 28.2666C75.4905 28.0788 75.4016 27.8339 75.4099 27.5826V26.7218L75.34 26.6782C75.305 26.7306 75.2777 26.7895 75.2361 26.8353C74.3168 27.8335 72.9394 28.6135 71.5609 28.7258C70.7673 28.7902 70.0163 28.7498 69.2609 28.4771C68.1513 28.0778 67.2166 27.0731 67.1314 25.1717C67.0909 24.2651 67.5249 23.292 68.3229 22.6091C69.1986 21.8608 70.4929 21.444 71.6462 21.444H75.2405ZM75.2405 24.1724L75.2427 22.8578C75.2427 22.8578 72.6147 22.8218 72.1064 22.8437C71.5237 22.8698 70.9651 22.9997 70.4644 23.2997C69.7495 23.7273 69.4533 24.3568 69.5254 25.1389C69.5965 25.92 70.1124 27.0731 71.6462 27.0731C72.4376 27.0731 73.4346 26.7415 73.9462 26.2462C74.4578 25.7498 75.2241 25.0898 75.2394 24.1735L75.2405 24.1724Z" fill="white"/>
<path d="M139.703 15.4734C140.784 15.4734 141.866 15.4712 142.947 15.4734C143.501 15.4756 143.969 15.7025 143.969 16.3647C143.969 17.0258 143.729 17.2854 142.947 17.3062C141.87 17.3356 139.718 17.3105 139.718 17.3105C139.718 17.3105 139.724 24.2989 139.718 24.7942C139.701 25.8305 140.554 26.5298 141.584 26.5298H142.777C143.288 26.5298 143.969 26.6127 143.969 27.6043C143.969 28.5971 142.777 28.5142 142.777 28.5142C142.777 28.5142 141.968 28.5229 141.072 28.5142C138.783 28.4902 137.326 26.8745 137.326 24.5465C137.324 21.0622 137.324 14.0629 137.326 10.5785C137.326 10.0047 137.592 9.61852 138.088 9.45488C138.598 9.28688 139.148 9.43088 139.458 9.81488C139.633 10.0331 139.704 10.284 139.703 10.5567C139.697 12.1963 139.703 13.8349 139.703 15.4734ZM124.248 22.1596V27.5345C124.248 28.0211 124.028 28.3822 123.568 28.572C123.098 28.7683 122.646 28.7127 122.248 28.3865C121.969 28.1552 121.869 27.8465 121.869 27.4996V16.7018C121.869 16.0909 122.179 15.684 122.745 15.5389C123.525 15.3371 124.243 15.8585 124.246 16.6385C124.253 18.4789 124.248 20.3192 124.248 22.1585V22.1596ZM111.181 20.8985C110.52 18.7644 109.857 16.6309 109.191 14.4982C108.638 12.7374 108.088 10.9767 107.529 9.21816C107.291 8.47197 106.447 8.17743 105.763 8.59088C105.266 8.88979 105.091 9.36761 105.274 9.95125C105.871 11.854 106.469 13.7566 107.067 15.6589L107.651 17.5123C107.812 18.024 108.61 20.6018 109.376 23.0782C110.069 25.3189 110.907 27.4745 111.053 27.9392C111.157 28.2709 111.347 28.5382 111.682 28.6789C112.148 28.8666 112.668 28.8666 113.133 28.6789C113.47 28.5382 113.659 28.2709 113.764 27.9392C113.909 27.4756 114.747 25.3189 115.441 23.0782C116.207 20.6018 117.005 18.024 117.166 17.5123L117.748 15.6589C118.346 13.7563 118.945 11.8549 119.542 9.95125C119.726 9.36761 119.551 8.88979 119.054 8.59088C118.368 8.17743 117.524 8.47197 117.287 9.21816C116.883 10.4902 116.484 11.7643 116.084 13.0363L115.625 14.4982C115.347 15.3818 114.492 18.1396 113.636 20.8985C113.201 22.2992 112.535 25.0211 112.408 25.0211C112.281 25.0211 111.615 22.2992 111.181 20.8985ZM175.999 12.8825V27.6043C175.999 27.9894 175.793 28.2752 175.367 28.4258C174.93 28.5807 174.509 28.5371 174.139 28.2785C174.025 28.2016 173.932 28.0965 173.87 27.9735C173.808 27.8505 173.779 27.7136 173.785 27.576V8.55816C173.785 8.07597 174.075 7.75307 174.601 7.63743C175.326 7.47816 175.995 7.89052 175.997 8.51016C176.003 9.96652 175.999 11.424 175.999 12.8825ZM124.375 10.6385C124.366 11.3858 123.832 11.9127 123.094 11.9007C122.334 11.8898 121.811 11.3498 121.82 10.5894C121.828 9.91852 122.4 9.41452 123.144 9.42216C123.848 9.4287 124.384 9.95888 124.375 10.6385Z" fill="#F7FBFF"/>
<path d="M49.9413 10.5927H49.6724C47.7091 10.5927 47.6205 10.5938 45.6572 10.5916C45.4098 10.595 45.1677 10.5202 44.9654 10.3779C44.7632 10.2357 44.6112 10.0333 44.5312 9.79962C44.3673 9.31198 44.5312 8.79925 44.9543 8.49598C45.1904 8.3258 45.4572 8.26471 45.749 8.26471C49.3598 8.26798 51.0946 8.26689 54.7053 8.26689C53.9696 8.26689 55.2782 8.26471 56.5878 8.26689C57.2142 8.26798 57.7258 8.70326 57.7979 9.28907C57.8701 9.87053 57.4918 10.4105 56.8982 10.56C56.7747 10.5916 56.6392 10.5916 56.5102 10.5927H52.7672C52.4982 10.5927 52.4972 10.5927 52.4972 10.8523C52.4972 16.3953 52.4961 21.7745 52.4993 27.3185C52.4993 27.8345 52.3201 28.2513 51.85 28.512C51.0225 28.9702 49.9982 28.4203 49.9446 27.4953C49.938 27.3949 49.9413 27.2945 49.9413 27.1942V10.5927ZM83.1288 17.2014C83.8394 16.4923 84.6341 15.8814 85.5294 15.6207C86.9921 15.1953 88.5826 15.4702 89.467 16.0342C91.2412 17.1633 91.8239 18.8574 91.8282 20.8603C91.8348 23.1153 91.8337 25.3691 91.8326 27.624C91.8315 28.2807 91.3352 28.7553 90.6553 28.7607C89.9775 28.7673 89.4714 28.2982 89.4692 27.6382C89.4637 25.6353 89.4681 23.5745 89.467 21.5705C89.467 19.2578 88.341 17.604 86.4662 17.5211C84.5926 17.4393 83.1266 18.8433 83.1266 20.8265C83.1266 22.8109 83.1179 24.8782 83.1376 27.5902C83.1441 28.5283 82.1471 29.0323 81.3458 28.6113C81.1895 28.5331 81.0553 28.4171 80.9556 28.2737C80.8559 28.1304 80.7939 27.9644 80.7752 27.7909C80.7666 27.7185 80.763 27.6456 80.7643 27.5727C80.7632 23.9378 80.7697 20.3018 80.7588 16.6636C80.7555 15.6687 81.7853 15.2236 82.5385 15.6218C82.9134 15.8182 83.1179 16.1313 83.1288 16.5523C83.1332 16.7487 83.1288 16.944 83.1288 17.2014ZM98.9797 28.9265C97.4895 28.9582 96.032 28.4882 94.8421 27.5923C94.3502 27.2302 94.0539 26.6334 94.3797 26.1578C94.7186 25.6625 95.3526 25.6931 95.8926 25.9942C96.2807 26.2091 96.6589 26.4469 97.0667 26.6214C98.0626 27.0491 99.2694 27.0578 100.335 26.7218C101.018 26.5069 101.513 26.0902 101.636 25.3582C101.728 24.8214 101.571 24.3545 101.109 24.0534C100.707 23.7956 100.278 23.582 99.8302 23.4163C99.0595 23.1294 98.267 22.9003 97.4865 22.6342C96.8664 22.4333 96.2817 22.1366 95.7538 21.7549C94.6191 20.9105 94.4059 19.7673 94.5808 18.4342C94.7634 17.0378 95.6204 16.1433 96.9344 15.6305C97.8767 15.2618 98.6922 15.2094 99.6914 15.2825C100.752 15.3611 101.741 15.6643 102.669 16.1673C103.234 16.4749 103.434 16.8196 103.172 17.328C102.9 17.8516 102.273 18.0513 101.704 17.8134C101.231 17.6171 100.759 17.4033 100.266 17.268C99.5974 17.0869 98.9076 17.0498 98.2243 17.2429C97.8283 17.3529 97.4831 17.5974 97.2482 17.9341C97.0134 18.2708 96.9036 18.6788 96.9377 19.0876C96.9803 19.5676 97.2722 19.8949 97.6625 20.1534C98.2112 20.5167 98.8409 20.6956 99.4564 20.9105C100.349 21.2236 100.91 21.5182 101.782 21.8814C102.472 22.1705 103.05 22.6363 103.435 23.2865C104.375 24.8683 103.789 27.0753 102.19 28.0418C101.1 28.7007 100.238 28.9123 98.9797 28.9254V28.9265ZM60.5177 17.2243L60.6719 17.0389C61.7399 15.7593 63.0397 15.2902 63.7218 15.2902H64.9997C65.426 15.2902 65.9366 15.7854 65.9366 16.3647C65.9366 16.9429 65.5102 17.4393 64.9997 17.4393H63.6365C63.2955 17.4393 62.5171 17.7698 61.7617 18.5138C61.0184 19.2458 60.6391 20.3902 60.6391 20.7283C60.6369 23.3782 60.6347 24.7178 60.6391 27.3665C60.6391 27.8553 60.4314 28.2283 59.9569 28.4607C59.1491 28.8567 58.1532 28.3407 58.1018 27.5062C58.0996 27.4593 58.0996 27.4134 58.0996 27.3665V16.6822C58.0996 16.0876 58.4516 15.6502 59.0507 15.4953C59.7908 15.3022 60.415 15.8094 60.4609 16.5065C60.4718 16.8491 60.4609 17.0269 60.4609 17.2047L60.5166 17.2243H60.5177Z" fill="white"/>
<path d="M130.031 17.3062L130.185 17.1207C131.254 15.8422 132.554 15.3731 133.235 15.3731H134.513C134.94 15.3731 135.45 15.8683 135.45 16.4465C135.45 17.0247 135.024 17.5211 134.513 17.5211H133.15C132.809 17.5211 132.031 17.8516 131.276 18.5956C130.532 19.3287 130.153 20.472 130.153 20.8113C130.15 23.46 130.148 24.7996 130.153 27.4494C130.154 27.9371 129.946 28.3113 129.472 28.5436C128.664 28.9385 127.668 28.4225 127.615 27.5891C127.613 27.5422 127.613 27.4953 127.613 27.4494V16.7651C127.613 16.1694 127.966 15.7331 128.564 15.5782C129.305 15.3851 129.928 15.8913 129.973 16.5894C129.985 16.932 129.975 17.1098 129.975 17.2876L130.031 17.3062ZM146.185 16.536C146.185 15.9262 146.495 15.5193 147.062 15.3731C147.841 15.1723 148.56 15.6927 148.562 16.4738C148.57 19.0265 148.569 22.2338 148.569 23.8036C148.569 25.3734 150.158 26.6127 151.806 26.6127C153.455 26.6127 155.044 25.4563 155.044 23.8025V16.5371C155.044 15.9262 155.356 15.5182 155.922 15.3731C156.7 15.1723 157.418 15.6927 157.422 16.4738C157.43 19.0265 157.429 20.1676 157.429 23.472C157.429 26.7774 154.68 28.7629 151.806 28.7629C148.932 28.7629 146.184 26.4469 146.184 23.472L146.185 16.536Z" fill="#F7FBFF"/>
</g>
<defs>
<clipPath id="clip0_89_5001">
<rect width="176" height="36" fill="white"/>
</clipPath>
</defs>
</svg>
